# xmcd
#
# Track frame offsets:
#	187
#	15377
#	24455
#	35470
#	49960
#	63852
#	78117
#	89697
#	109107
#	122327
#
# Disc length: 1807 seconds
#
# Revision: 12
# Processed by: cddbd v1.5.2PL0 Copyright (c) Steve Scherf et al.
# Submitted via: EZCDAudioConverter 6.0.5.1
#
DISCID=70070d0a
DTITLE=Marty Stuart - Tempted
DYEAR=1991
DGENRE=Country
TTITLE0=I'm Blue, I'm Lonesome
TTITLE1=Paint The Town Tonight
TTITLE2=Till I Found You
TTITLE3=Tempted
TTITLE4=Blue Train
TTITLE5=Little Things
TTITLE6=Half A Heart
TTITLE7=I Want A Woman
TTITLE8=Burn Me Down
TTITLE9=Get Back To The Country
EXTD=
EXTT0=
EXTT1=
EXTT2=
EXTT3=
EXTT4=
EXTT5=
EXTT6=
EXTT7=
EXTT8=
EXTT9=
PLAYORDER=
